<?xml version="1.0" encoding="UTF-8"?>
<svg width="24px" height="24px" viewBox="0 0 24 24" version="1.1" xmlns="http://www.w3.org/2000/svg" xmlns:xlink="http://www.w3.org/1999/xlink">
    <title>Group 3 Copy 2</title>
    <defs>
        <polygon id="path-1" points="0 0 24 0 24 24 0 24"></polygon>
    </defs>
    <g id="Page-1" stroke="none" stroke-width="1" fill="none" fill-rule="evenodd">
        <g id="Group-3-Copy-2">
            <mask id="mask-2" fill="white">
                <use xlink:href="#path-1"></use>
            </mask>
            <g id="Clip-2"></g>
            <path d="M16.6535299,0 C16.744629,0.00146488057 16.8328732,0 16.9211174,0 C19.4364826,0 21.6459117,1.32653552 22.9006755,3.32588207 C23.1379251,3.70248563 23.3404053,4.10321663 23.5045796,4.52299109 C23.7873787,5.24328148 23.9573053,6.02139156 23.992032,6.83457262 C23.9977843,6.942069 24,7.04956538 24,7.15779421 C24,11.1111191 20.8308351,14.3163639 16.9211174,14.3163639 L16.1885327,14.3163639 C14.6849296,14.3163639 13.4655742,15.5485439 13.4655742,17.0688745 L13.465,16.994 L13.4583166,17.3015624 C13.3956418,18.7105925 12.9299649,20.013078 12.175258,21.0952901 L11.996016,21.3410694 C11.5165316,21.971442 10.9350401,22.5177132 10.2762124,22.9557125 C10.00283,23.1385641 9.71713345,23.3016397 9.419208,23.4449826 C9.06915695,23.6126683 8.51202386,23.7976741 7.74780872,24 L7.74711631,20.1343471 C7.73119102,19.2254803 7.54750158,18.355212 7.22494785,17.5574122 C6.6904972,16.2322985 5.77418043,15.1054175 4.61413747,14.3163639 C4.51941661,14.2527278 4.42392877,14.1905565 4.32626785,14.1313151 C4.39567869,14.191289 4.46372602,14.2527278 4.52951505,14.3163639 C5.35758759,15.1148962 5.88483724,16.2308336 5.91952135,17.4711135 C3.90750193,17.1500892 2.17687548,15.9712481 1.10652546,14.3163639 C0.870000266,13.9514363 0.666071318,13.5638462 0.498317813,13.1572556 C0.491074203,13.1397202 0.483830592,13.122874 0.477311342,13.1053386 C0.470834702,13.0907328 0.465039813,13.0753516 0.459244925,13.0607459 C0.228557225,12.4778957 0.0708595574,11.8570449 0,11.2098693 C0.295070616,11.1718255 0.59521176,11.1520927 0.900423432,11.1520927 C1.31769802,11.1520927 1.72704725,11.1886285 2.1248067,11.2588566 C4.05795599,11.5996137 5.72134468,12.7330866 6.77580137,14.3163639 C6.94653754,14.5722872 7.10057079,14.8392401 7.23721938,15.1170935 C7.45201374,15.5507412 7.62343166,16.0092919 7.74780872,16.4882648 C7.75722541,16.5248006 7.76664211,16.562112 7.77533444,16.5994234 C7.82880933,15.814032 7.95974825,15.0505707 8.16005539,14.3163639 C8.44502756,13.2691467 8.87171885,12.2819033 9.41775927,11.3758747 C9.55082867,11.1535575 9.69186603,10.9370999 9.83938003,10.7249938 C10.0194477,10.4661408 10.2096564,10.2153015 10.4107305,9.97325157 C10.8800739,9.40285293 11.4037017,8.87924429 11.9728791,8.40975007 C11.4948008,9.13081599 11.0963169,9.90888299 10.7867591,10.7323182 C10.7245919,10.8975912 10.6667282,11.0628642 10.6124864,11.231067 C10.5778022,11.3370985 10.5445242,11.4438624 10.5134193,11.5520912 C10.6848372,11.56674 10.8576613,11.5740213 11.032701,11.5747538 C11.0492761,11.5754862 11.0666607,11.5754862 11.0833211,11.5754862 C11.1707983,11.5754862 11.2583182,11.5740213 11.345838,11.5703591 C12.0871151,11.5433019 12.7995029,11.4007346 13.4655742,11.1594171 C13.6804112,11.082597 13.890135,10.9948765 14.0947883,10.8968588 C16.0843526,9.950589 17.5669493,8.09458533 18.0182688,5.85904833 C18.1129897,5.39321631 18.162161,4.91131369 18.162161,4.41769202 C18.162161,4.19537486 18.1520626,3.97598745 18.1317805,3.75879736 C18.1245368,3.66810402 18.1144384,3.57814312 18.1028486,3.4882253 C16.4380112,3.57745376 14.8678946,4.02570722 13.4655742,4.75771665 C13.0295088,4.98442846 12.6100186,5.23888683 12.2093617,5.51898062 C11.3299447,6.13181771 10.5394537,6.86602446 9.86179262,7.696741 C9.26585649,8.4265962 8.75599151,9.23172041 8.34881537,10.0953968 C8.22950884,10.3491227 8.11885203,10.6080188 8.01756931,10.8712664 C7.91850228,11.1271897 7.82880933,11.3868182 7.74780872,11.6515308 L7.74780872,0 Z M4.49220103,8.15841765 C4.76245373,8.84861544 7.79312658,9.13918018 6.62523383,11.4824443 C6.47911029,11.0264877 6.04419475,10.213162 5.30919507,9.70855075 C5.81295889,10.2059192 6.16166661,10.9175046 6.36231259,11.6391447 C5.97425096,11.8313776 3.35220152,10.9591721 4.49220103,8.15841765 Z" id="Combined-Shape" fill="#66CC33" mask="url(#mask-2)"></path>
        </g>
    </g>
</svg>